<?xml version="1.0" encoding="utf-8"?>
<svg version="1.1" viewBox="0.00 0.00 720.00 720.00" xmlns="http://www.w3.org/2000/svg">
  <path d="M 312.265 58.939 C 316.427 65.726 324.464 71.934 332.046 66.368 C 340.291 60.313 341.984 47.793 340.673 37.794 C 340.507 36.526 341.061 35.893 342.335 35.893 L 357.334 35.893 C 357.741 35.893 358.068 36.217 358.068 36.615 C 358.13 46.915 359.123 61.006 369.555 66.449 C 378.315 71.026 386.227 62.214 389.41 54.115 C 391.468 48.875 392.498 43.43 392.498 37.784 C 392.498 37.371 392.705 37.192 393.118 37.247 L 408.862 39.157 C 409.329 39.212 409.533 39.474 409.471 39.942 C 408.407 48.392 407.208 55.282 409.915 63.599 C 414.936 79.052 427.362 78.453 435.813 66.305 C 439.634 60.809 441.938 54.656 442.723 47.845 C 442.799 47.208 443.431 46.794 444.047 46.977 L 459.303 51.637 C 459.957 51.836 460.119 52.235 459.789 52.834 C 455.191 61.191 452.919 71.748 456.69 80.943 C 461.131 91.789 472.216 90.643 479.912 83.752 C 485.683 78.595 489.485 72.179 491.316 64.508 C 491.413 64.101 491.647 63.991 492.019 64.176 L 507.059 71.708 C 507.411 71.886 507.502 72.348 507.245 72.648 C 500.675 80.178 495.882 93.565 500.387 103.152 C 501.798 106.162 504.008 108.149 507.018 109.113 C 519.497 113.131 531.862 98.112 536.634 88.752 C 536.8 88.436 537.028 88.38 537.316 88.587 L 550.198 97.925 C 550.632 98.236 550.708 98.852 550.364 99.269 C 547.429 102.746 544.829 106.52 542.564 110.59 C 537.967 118.853 536.087 135.186 549 137.283 C 560.384 139.122 572.047 128.895 577.718 120.022 C 577.935 119.684 578.406 119.625 578.709 119.897 L 591.033 131.384 C 591.453 131.777 591.425 132.132 590.95 132.448 C 582.014 138.45 571.746 153.068 576.735 164.225 C 580.177 171.93 590.362 171.516 597.396 168.749 C 603.491 166.358 608.794 162.784 613.305 158.026 C 613.608 157.702 613.897 157.713 614.173 158.056 L 624.482 170.938 C 624.716 171.234 624.668 171.476 624.337 171.662 C 618.043 175.07 612.881 179.736 608.853 185.659 C 604.67 191.795 602.355 201.34 609.018 206.433 C 618.966 214.046 635.535 207.301 644.161 200.597 C 644.392 200.415 644.731 200.49 644.863 200.751 L 652.487 215.39 C 652.701 215.795 652.586 216.063 652.146 216.195 C 643.297 218.832 636.375 223.56 631.382 230.379 C 626.868 236.545 626.755 245.832 633.717 250.159 C 642.457 255.594 656.929 252.133 665.193 247.557 C 665.499 247.382 665.888 247.524 666.009 247.857 L 671.546 262.959 C 671.66 263.263 671.46 263.598 671.133 263.651 C 661.401 265.139 648.592 271.544 645.566 281.647 C 644.388 285.573 644.907 289.042 647.126 292.059 C 654.812 302.493 669.987 298.691 680.637 297.038 C 681.015 296.983 681.239 297.145 681.308 297.524 L 684.17 313.257 C 684.238 313.643 684.079 313.839 683.694 313.845 C 673.653 314.154 660.347 318.567 655.152 327.791 C 647.435 341.499 667.92 349.175 677.827 348.813 C 681.215 348.688 683.79 348.624 685.553 348.617 C 686.063 348.617 686.318 348.872 686.318 349.38 L 686.318 364.917 C 686.318 365.314 686.002 365.64 685.606 365.651 C 683.959 365.714 681.959 365.72 679.603 365.672 C 670.523 365.485 658.137 369.205 654.336 377.933 C 647.756 393.078 673.024 400.37 683.157 400.194 C 683.455 400.189 683.684 400.463 683.632 400.763 L 680.771 416.547 C 680.709 416.892 680.505 417.039 680.162 416.991 C 677.372 416.585 674.631 416.251 671.938 415.99 C 660.638 414.884 639.616 420.442 647.611 436.371 C 651.351 443.819 663.819 448.881 671.795 450.11 C 672.229 450.172 672.379 450.413 672.249 450.833 L 667.631 465.296 C 667.432 465.922 666.723 466.226 666.133 465.935 C 658.54 462.248 647.353 460.213 639.501 464.2 C 629.492 469.283 630.773 479.53 637.208 486.864 C 641.582 491.857 646.944 495.493 653.292 497.773 C 653.63 497.892 653.789 498.277 653.633 498.6 L 646.95 512.648 C 646.796 512.966 646.395 513.075 646.103 512.876 C 638.52 507.638 627.219 504.488 618.666 508.64 C 614.424 510.707 612.282 514.006 612.242 518.536 C 612.159 528.02 620.65 537.317 628.768 542.048 C 629.239 542.324 629.361 542.947 629.027 543.37 L 619.905 555.219 C 619.558 555.667 618.905 555.729 618.48 555.353 C 611.817 549.414 597.986 542.832 589.308 548.536 C 576.798 556.758 589.153 574.382 596.984 580.868 C 597.222 581.066 597.237 581.429 597.015 581.653 L 586.57 592.097 C 586.302 592.373 585.854 592.363 585.589 592.077 C 579.277 585.144 561.417 574.329 553.173 584.908 C 546.335 593.677 553.256 607.665 559.443 614.638 C 559.712 614.947 559.685 615.229 559.36 615.484 L 547.016 624.988 C 546.679 625.249 546.19 625.163 545.962 624.802 C 540.901 616.941 530.88 608.769 521.294 610.403 C 510.623 612.211 510.21 625.835 512.948 634.182 C 513.959 637.267 515.2 640.274 516.666 643.2 C 516.805 643.485 516.694 643.824 516.419 643.965 L 503.588 650.607 C 503.162 650.828 502.828 650.732 502.587 650.318 C 500.727 647.143 499.188 644.746 497.969 643.128 C 492.328 635.628 479.365 627.457 471.782 637.674 C 466.844 644.336 468.125 655.648 470.904 662.951 C 471.166 663.634 470.952 664.091 470.264 664.326 L 456.7 668.871 C 455.977 669.12 455.505 668.875 455.284 668.137 C 452.733 659.574 446.122 650.142 437.104 648.603 C 423.313 646.268 419.956 667.115 422.032 676.866 C 422.102 677.195 421.887 677.517 421.557 677.58 L 406.371 680.492 C 406.02 680.562 405.794 680.427 405.691 680.089 C 403.138 671.608 397.807 660.007 387.881 658.54 C 376.383 656.847 371.509 674.562 371.467 683.106 C 371.46 683.661 371.008 684.107 370.454 684.107 L 355.775 684.107 C 355.196 684.107 354.9 683.819 354.887 683.24 C 354.68 674.697 350.558 660.204 340.342 658.572 C 327.223 656.475 322.977 670.585 320.756 680.121 C 320.666 680.52 320.416 680.692 320.002 680.637 L 305.519 678.746 C 304.843 678.662 304.345 678.069 304.373 677.382 C 304.775 668.736 301.491 652.498 290.448 652.116 C 281.265 651.806 273.485 663.055 271.047 670.782 C 270.924 671.174 270.669 671.305 270.283 671.174 L 255.79 666.319 C 255.443 666.201 255.242 665.84 255.325 665.483 C 257.308 657.116 256.832 641.775 246.379 638.655 C 236.348 635.66 227.619 646.505 223.126 653.644 C 222.943 653.93 222.573 654.029 222.279 653.872 L 209.149 647.032 C 208.865 646.89 208.749 646.543 208.89 646.258 C 221.102 621.568 198.882 604.287 181.186 628.428 C 180.729 629.052 179.862 629.202 179.223 628.769 L 167.519 620.804 C 166.978 620.442 166.798 619.727 167.105 619.152 C 170.09 613.502 172.664 607.283 171.951 600.775 C 169.854 581.705 148.625 590.206 140.599 598.616 C 140.359 598.862 139.966 598.878 139.711 598.646 L 128.151 588.275 C 127.806 587.962 127.783 587.428 128.1 587.088 C 134.513 580.175 141.724 563.111 129.091 557.615 C 121.902 554.496 112.666 557.513 106.313 562.026 C 105.884 562.338 105.283 562.251 104.96 561.83 L 95.869 550.023 C 95.391 549.398 95.486 548.507 96.087 547.998 C 117.128 530.22 102.77 507.401 77.514 520.334 C 77.14 520.526 76.848 520.44 76.635 520.076 L 69.176 507.205 C 68.914 506.746 69.066 506.166 69.517 505.904 C 76.272 502.018 82.481 495.263 83.608 487.546 C 85.818 472.434 65.963 471.514 56.409 474.675 C 55.974 474.819 55.506 474.588 55.365 474.159 L 50.603 459.862 C 50.5 459.559 50.662 459.231 50.964 459.128 C 58.774 456.494 66.944 449.78 67.751 441.401 C 69.062 427.848 51.172 425.41 41.739 427.043 C 41.424 427.092 41.126 426.882 41.068 426.568 L 38.155 411.372 C 38.086 411.013 38.23 410.801 38.589 410.731 C 43.464 409.767 47.906 407.873 51.915 405.05 C 59.239 399.906 62.823 390.392 54.601 384.059 C 48.981 379.734 42.345 377.548 34.695 377.5 C 34.134 377.494 33.682 377.037 33.682 376.476 L 33.775 361.932 C 33.775 361.479 34.129 361.107 34.58 361.085 C 42.39 360.682 51.728 357.747 56.068 351.209 C 60.851 343.977 56.263 336.633 49.983 332.295 C 45.355 329.093 40.241 328.318 35.17 326.831 C 34.919 326.752 34.762 326.506 34.798 326.251 L 36.75 311.118 C 36.793 310.809 37.065 310.587 37.37 310.612 C 46.316 311.335 57.617 309.785 62.607 301.852 C 69.776 290.459 53.133 279.653 44.187 277.08 C 43.779 276.965 43.538 276.541 43.651 276.13 L 47.618 261.926 C 47.712 261.565 48.088 261.352 48.454 261.451 C 56.439 263.672 66.48 263.919 73.184 259.054 C 81.241 253.219 78.339 243.301 72.585 236.906 C 69.083 233.013 64.983 231.142 60.851 228.643 C 60.554 228.47 60.484 228.233 60.643 227.929 L 67.275 215.182 C 67.574 214.611 68.282 214.397 68.845 214.707 C 77.667 219.604 97.75 222.807 100.321 208.675 C 102.036 199.264 93.338 189.068 85.932 184.068 C 85.463 183.754 85.343 183.117 85.663 182.653 L 93.855 170.638 C 94.079 170.318 94.528 170.251 94.835 170.494 C 101.716 176.083 112.584 180.06 121.044 176.548 C 136.643 170.05 123.874 149.897 115.992 143.408 C 115.75 143.214 115.721 142.853 115.93 142.613 L 126.323 131.106 C 126.585 130.819 127.035 130.814 127.305 131.095 C 131.112 135.096 135.565 138.205 140.661 140.424 C 150.712 144.783 162.902 142.283 162.189 128.781 C 161.796 121.364 158.346 115.775 153.935 109.991 C 153.728 109.715 153.759 109.475 154.027 109.268 L 166.217 99.908 C 166.642 99.582 167.257 99.686 167.56 100.137 C 172.281 107.119 179.677 113.483 187.798 115.011 C 198.355 116.995 203.314 107.987 202.745 98.721 C 202.345 92.227 200.352 86.211 196.763 80.674 C 196.422 80.156 196.593 79.456 197.136 79.145 L 209.552 72.059 C 209.996 71.811 210.554 72.01 210.74 72.483 C 214.128 81.149 224.055 93.307 234.913 91.541 C 249.437 89.165 245.966 67.048 241.833 58.061 C 241.689 57.759 241.776 57.548 242.091 57.432 L 256.885 51.915 C 257.18 51.805 257.359 51.905 257.422 52.214 C 259.24 61.191 266.667 75.179 276.905 76.078 C 293.991 77.575 294.095 54.032 290.417 43.279 C 290.217 42.683 290.586 42.049 291.202 41.925 L 305.322 39.209 C 305.846 39.112 306.132 39.326 306.179 39.849 C 306.888 47.136 308.918 53.499 312.265 58.939 Z M 169.761 249.251 C 191.723 266.957 227.185 270.501 256.069 270.18 C 310.116 269.574 361.926 258.682 411.496 237.506 C 432.238 228.643 454.231 216.762 470.615 201.381 C 489.798 183.365 500.872 160.03 483.351 136.953 C 464.976 112.748 425.193 102.471 396.631 99.113 C 349.084 93.534 303.184 99.599 258.93 117.305 C 227.651 129.825 196.805 148.46 174.512 174.089 C 156.187 195.153 143.295 227.898 169.761 249.251 Z M 543.865 198.261 C 532.916 180.494 503.67 185.143 499.685 206.898 C 497.091 221.039 509.425 234.716 523.526 234.809 C 541.831 234.934 553.411 213.747 543.865 198.261 Z M 547.832 547.172 C 602.467 492.163 629.657 410.752 623.336 334.774 C 620.835 304.714 608.005 249.996 568.576 248.373 C 534.693 246.988 503.072 293.227 488.92 319.123 C 465.767 361.484 450.543 406.699 443.25 454.768 C 438.395 486.751 434.46 546.274 462.124 570.311 C 489.147 593.802 527.637 567.501 547.832 547.172 Z M 174.802 293.712 C 174.802 280.801 164.335 270.335 151.424 270.335 C 138.514 270.335 128.047 280.801 128.047 293.712 C 128.047 306.622 138.514 317.089 151.424 317.089 C 164.335 317.089 174.802 306.622 174.802 293.712 Z M 424.811 360.641 C 424.811 324.915 395.849 295.954 360.124 295.954 C 324.399 295.954 295.437 324.915 295.437 360.641 C 295.437 396.366 324.399 425.328 360.124 425.328 C 395.849 425.328 424.811 396.366 424.811 360.641 Z M 339.556 504.745 C 308.896 449.408 263.703 400.298 210.348 366.208 C 183.18 348.853 128.316 322.978 106.974 363.202 C 95.901 384.048 99.763 412.818 106.189 434.8 C 126.374 503.837 176.299 561.654 238.828 595.734 C 256.596 605.416 274.216 611.983 291.687 615.433 C 319.082 620.836 351.726 616.57 359.225 585.32 C 365.444 559.423 351.922 527.09 339.556 504.745 Z M 432.631 574.299 C 432.631 561.051 421.892 550.312 408.644 550.312 C 395.398 550.312 384.658 561.051 384.658 574.299 C 384.658 587.546 395.398 598.285 408.644 598.285 C 421.892 598.285 432.631 587.546 432.631 574.299 Z" style="fill: #000;"/>
</svg>