<?xml version="1.0" encoding="UTF-8" standalone="no"?>
<!DOCTYPE svg PUBLIC "-//W3C//DTD SVG 1.1//EN" "http://www.w3.org/Graphics/SVG/1.1/DTD/svg11.dtd">
<svg xmlns="http://www.w3.org/2000/svg" version="1.1" viewBox="0.00 0.00 1024.00 1024.00">
<path fill="#0058cc" d="
  M 537.58 464.89
  A 1.16 1.15 15.8 0 0 538.68 464.28
  L 667.91 227.72
  A 3.06 3.05 53.3 0 0 668.22 225.58
  L 658.73 182.25
  A 1.35 1.33 -37.9 0 1 658.85 181.33
  L 717.96 67.49
  Q 718.34 66.76 718.76 67.47
  L 754.63 127.83
  Q 754.90 128.29 755.44 128.27
  L 825.76 125.83
  A 0.37 0.37 0.0 0 1 826.09 126.39
  L 762.20 237.71
  Q 761.92 238.19 761.40 238.39
  L 716.59 255.01
  Q 716.07 255.20 715.80 255.69
  L 587.92 489.75
  A 1.36 1.35 39.2 0 0 588.08 491.27
  C 619.93 528.89 602.10 584.58 555.23 597.42
  C 508.75 610.16 459.55 573.09 465.43 523.12
  C 469.63 487.46 502.11 462.46 537.58 464.89
  Z"
/>
<path fill="#0058cc" d="
  M 255.49 327.38
  C 347.50 237.62 481.60 202.41 605.86 235.31
  A 0.43 0.43 0.0 0 1 606.04 236.05
  L 556.78 279.05
  A 1.10 1.09 27.1 0 1 555.94 279.32
  C 421.25 263.87 290.31 346.09 259.49 481.24
  C 233.35 595.92 289.77 713.34 390.09 771.40
  Q 441.89 801.39 500.82 808.40
  C 624.10 823.08 745.86 753.86 787.31 635.19
  C 820.33 540.61 796.66 440.33 728.45 367.78
  A 1.64 1.61 26.4 0 1 728.01 366.51
  L 734.31 299.75
  A 0.34 0.33 21.8 0 1 734.85 299.52
  C 841.27 382.21 897.17 516.34 874.23 650.38
  C 850.10 791.34 748.12 905.20 610.24 943.72
  C 463.31 984.77 305.40 929.62 215.69 806.80
  C 107.53 658.72 125.39 455.68 254.87 327.69
  A 0.94 0.60 5.3 0 1 255.24 327.50
  Q 255.31 327.49 255.37 327.46
  Q 255.43 327.44 255.49 327.38
  Z"
/>
<path fill="#0058cc" d="
  M 489.27 724.43
  C 409.51 705.59 348.20 642.10 334.54 561.19
  C 325.37 506.79 341.90 449.26 377.73 407.48
  C 423.36 354.26 495.21 329.92 564.30 342.23
  A 0.51 0.51 0.0 0 1 564.57 343.08
  L 515.92 394.19
  A 3.47 3.44 -70.9 0 1 513.78 395.24
  C 427.57 404.20 367.90 485.63 393.61 570.43
  C 417.65 649.71 505.99 693.21 583.63 666.97
  C 621.57 654.15 653.75 625.87 668.41 588.05
  Q 691.33 528.87 659.84 472.41
  Q 659.33 471.49 659.48 470.74
  Q 666.47 435.85 673.42 400.91
  A 0.32 0.31 -61.5 0 1 673.95 400.75
  C 725.43 451.67 746.68 524.51 725.00 594.50
  C 694.05 694.41 589.23 748.05 489.27 724.43
  Z"
/>
</svg>
